<svg width="353" height="207" viewBox="0 0 353 207" fill="none" xmlns="http://www.w3.org/2000/svg">
<path d="M5.95653 27.624H21.6406C24.9301 27.624 27.5967 24.9548 27.5967 21.662V5.96229C27.5967 2.66958 24.9301 0.000307083 21.6406 0.000307083H5.95653C2.6671 0.000307083 0.000534058 2.66958 0.000534058 5.96229V21.662C0.000534058 24.9548 2.6671 27.624 5.95653 27.624Z" fill="#F19425"/>
<path d="M321.532 206.571H344.001C348.713 206.571 352.532 202.748 352.532 198.032V175.54C352.532 170.824 348.713 167 344.001 167H321.532C316.82 167 313.001 170.824 313.001 175.54V198.032C313.001 202.748 316.82 206.571 321.532 206.571Z" fill="#16493C"/>
</svg>
