<svg width="428" height="523" viewBox="0 0 428 523" fill="none" xmlns="http://www.w3.org/2000/svg">
<path d="M281.548 451.097V489.233C281.548 507.86 296.632 522.958 315.24 522.958H511.202C531.72 522.958 548.359 506.307 548.359 485.764V142.416C548.359 123.477 533.024 108.127 514.104 108.127H489.749C471.741 108.127 457.146 93.5132 457.146 75.4921V34.0006C457.146 15.2243 441.942 0 423.18 0H57.1565C36.6387 0 20 16.6507 20 37.1937V381.81C20 401.947 36.3081 418.271 56.4254 418.271H248.75C266.861 418.271 281.544 432.969 281.544 451.097H281.548Z" fill="#16493C"/>
<path d="M37.6581 364.958H-5.58481C-14.6507 364.958 -22 372.315 -22 381.39V424.676C-22 433.751 -14.6507 441.107 -5.58481 441.107H37.6581C46.724 441.107 54.0733 433.751 54.0733 424.676V381.39C54.0733 372.315 46.724 364.958 37.6581 364.958Z" fill="#6DBEA8"/>
</svg>
