<svg width="847" height="564" viewBox="0 0 847 564" fill="none" xmlns="http://www.w3.org/2000/svg">
<path d="M775.139 204.7L813.274 204.696C831.902 204.696 847 189.612 847 171.004L847 37.1558C847 16.638 830.349 -3.62957e-05 809.806 -3.53978e-05L142.416 0.000298951C123.477 0.000299778 108.127 15.3338 108.127 34.2543L108.127 58.6092C108.127 76.6171 93.5132 91.2114 75.4921 91.2114L34.0006 91.2114C15.2243 91.2114 1.0519e-05 106.416 1.13392e-05 125.178L0.000146699 526.773C0.000147596 547.29 16.6508 563.929 37.1938 563.929L705.852 563.929C725.989 563.929 742.313 547.621 742.313 527.504L742.313 397.172L742.313 237.493C742.313 219.383 757.011 204.7 775.139 204.7Z" fill="#F39325"/>
</svg>
