<svg width="330" height="336" viewBox="0 0 330 336" fill="none" xmlns="http://www.w3.org/2000/svg">
<path d="M23.8594 0.5H249.622C261.393 0.500256 270.933 10.0575 270.933 21.8457V48.5039C270.933 60.3576 280.527 69.9715 292.367 69.9717H308.007C319.879 69.9718 329.503 79.6091 329.503 91.502V312.104C329.503 325.027 319.042 335.5 306.144 335.5H180.311C168.638 335.5 159.176 326.024 159.176 314.331V289.329H159.167C158.901 277.637 149.354 268.239 137.615 268.239H23.3896C10.7488 268.239 0.500132 257.975 0.5 245.312V23.8965C0.500217 10.9732 10.9583 0.5 23.8594 0.5Z" stroke="#274B41"/>
<path d="M261.07 295.23H245.386C242.097 295.23 239.43 297.899 239.43 301.192V316.892C239.43 320.184 242.097 322.854 245.386 322.854H261.07C264.36 322.854 267.026 320.184 267.026 316.892V301.192C267.026 297.899 264.36 295.23 261.07 295.23Z" fill="#F19425"/>
<path d="M161.741 250H139.272C134.56 250 130.741 253.823 130.741 258.54V281.031C130.741 285.748 134.56 289.571 139.272 289.571H161.741C166.453 289.571 170.272 285.748 170.272 281.031V258.54C170.272 253.823 166.453 250 161.741 250Z" fill="#16493C"/>
</svg>
