<svg width="1273" height="959" viewBox="0 0 1273 959" fill="none" xmlns="http://www.w3.org/2000/svg">
<path d="M204.701 71.8607L204.697 33.7254C204.697 15.0983 189.613 -0.000149428 171.005 -0.000147801L37.1559 -0.0001361C16.6381 -0.000134306 9.24062e-06 16.6506 1.10365e-05 37.1936L0.000567384 815.775C0.000569039 834.715 15.3341 850.065 34.2546 850.065L58.6095 850.065C76.6173 850.065 91.2118 864.678 91.2118 882.699L91.2118 924.191C91.2118 942.967 106.416 958.192 125.179 958.192L1235.84 958.191C1256.36 958.191 1273 941.54 1273 920.997L1273 141.148C1273 121.01 1256.69 104.686 1236.57 104.686L397.173 104.687L237.495 104.687C219.384 104.687 204.701 89.989 204.701 71.8607Z" fill="#274B41"/>
</svg>
