<svg width="258" height="176" viewBox="0 0 258 176" fill="none" xmlns="http://www.w3.org/2000/svg">
<path d="M48.2805 113.926H13.286C5.94836 113.926 0 119.859 0 127.178V162.082C0 169.401 5.94836 175.334 13.286 175.334H48.2805C55.6182 175.334 61.5665 169.401 61.5665 162.082V127.178C61.5665 119.859 55.6182 113.926 48.2805 113.926Z" fill="#F69333"/>
<path d="M180.167 0H247.247C252.685 0 257.096 4.40045 257.096 9.82379V76.7319C257.096 82.1502 252.685 86.5557 247.247 86.5557H180.167C174.735 86.5557 170.318 82.1552 170.318 76.7319V9.82379C170.318 4.40551 174.73 0 180.167 0Z" fill="#008C79"/>
</svg>
