<svg width="599" height="458" viewBox="0 0 599 458" fill="none" xmlns="http://www.w3.org/2000/svg">
<path d="M149.133 0H117.869C111.314 0 106.001 5.31347 106.001 11.868V43.132C106.001 49.6865 111.314 55 117.869 55H149.133C155.688 55 161.001 49.6865 161.001 43.132V11.868C161.001 5.31347 155.688 0 149.133 0Z" fill="#6DBEA8"/>
<path d="M5.95653 430H21.6406C24.9301 430 27.5967 432.669 27.5967 435.962V451.662C27.5967 454.954 24.9301 457.624 21.6406 457.624H5.95653C2.6671 457.624 0.000534058 454.954 0.000534058 451.662V435.962C0.000534058 432.669 2.6671 430 5.95653 430Z" fill="#F19425"/>
<path d="M567.532 287.042H590.001C594.713 287.042 598.532 290.865 598.532 295.582V318.073C598.532 322.79 594.713 326.613 590.001 326.613H567.532C562.82 326.613 559.001 322.79 559.001 318.073V295.582C559.001 290.865 562.82 287.042 567.532 287.042Z" fill="#16493C"/>
</svg>
