<svg width="571" height="523" viewBox="0 0 571 523" fill="none" xmlns="http://www.w3.org/2000/svg">
<path d="M303.548 451.097V489.233C303.548 507.86 318.632 522.958 337.24 522.958H533.202C553.72 522.958 570.359 506.307 570.359 485.764V142.416C570.359 123.477 555.024 108.127 536.104 108.127H511.749C493.741 108.127 479.146 93.5132 479.146 75.4921V34.0006C479.146 15.2243 463.942 0 445.18 0H79.1565C58.6387 0 42 16.6507 42 37.1937V381.81C42 401.947 58.3081 418.271 78.4254 418.271H270.75C288.861 418.271 303.544 432.969 303.544 451.097H303.548Z" fill="#16493C"/>
<path d="M538.372 356.88H495.129C486.063 356.88 478.713 364.237 478.713 373.312V416.598C478.713 425.673 486.063 433.03 495.129 433.03H538.372C547.437 433.03 554.787 425.673 554.787 416.598V373.312C554.787 364.237 547.437 356.88 538.372 356.88Z" fill="#F19425"/>
<path d="M59.6581 364.958H16.4152C7.34933 364.958 0 372.315 0 381.389V424.676C0 433.751 7.34933 441.107 16.4152 441.107H59.6581C68.724 441.107 76.0733 433.751 76.0733 424.676V381.389C76.0733 372.315 68.724 364.958 59.6581 364.958Z" fill="#6DBEA8"/>
</svg>
