<svg width="330" height="336" viewBox="0 0 330 336" fill="none" xmlns="http://www.w3.org/2000/svg">
<path d="M23.8594 0.5H249.622C261.393 0.500256 270.933 10.0575 270.933 21.8457V48.5039C270.933 60.3576 280.527 69.9715 292.367 69.9717H308.007C319.879 69.9718 329.503 79.6091 329.503 91.502V312.104C329.503 325.027 319.042 335.5 306.144 335.5H180.311C168.638 335.5 159.176 326.024 159.176 314.331V289.329H159.167C158.901 277.637 149.354 268.239 137.615 268.239H23.3896C10.7488 268.239 0.500132 257.975 0.5 245.312V23.8965C0.500217 10.9732 10.9583 0.5 23.8594 0.5Z" stroke="#274B41"/>
</svg>
